<svg xmlns="http://www.w3.org/2000/svg" viewBox="0 0 100 100" width="100" height="100">
  <circle cx="50" cy="50" r="50" fill="#0055FF"/>
  <!-- 1 -->
  <rect x="16" y="35" width="7" height="30" rx="1.5" fill="white"/>
  <rect x="16" y="35" width="12" height="7" rx="1.5" fill="white"/>
  <!-- M -->
  <rect x="29" y="35" width="7" height="30" rx="1.5" fill="white"/>
  <rect x="55" y="35" width="7" height="30" rx="1.5" fill="white"/>
  <polygon points="29,35 36,35 44.5,52 53,35 62,35 62,42 54,42 44.5,59 35,42 29,42" fill="white"/>
  <!-- O -->
  <rect x="64" y="35" width="21" height="7" rx="3.5" fill="white"/>
  <rect x="64" y="58" width="21" height="7" rx="3.5" fill="white"/>
  <rect x="64" y="35" width="7" height="30" rx="1.5" fill="white"/>
  <rect x="78" y="35" width="7" height="30" rx="1.5" fill="white"/>
</svg>
